<?xml version="1.0" encoding="UTF-8"?>
<svg id="Livello_1" data-name="Livello 1" xmlns="http://www.w3.org/2000/svg" viewBox="0 0 756.03 228.97">
  <defs>
    <style>
      .cls-1 {
        fill: #1d1d1b;
      }
    </style>
  </defs>
  <path class="cls-1" d="M24.1,180.77H0V60.26h24.1v120.51Z"/>
  <path class="cls-1" d="M75.13,96.41v132.56h-24.1V60.26h24.1l72.31,84.36V0h24.1v180.77h-24.1l-72.31-84.36Z"/>
  <path class="cls-1" d="M257.22,84.36v96.41h-24.1v-96.41h-48.21v-24.1h120.51v24.1h-48.21Z"/>
  <path class="cls-1" d="M318.79,120.51v-60.26h24.1v60.26c0,10.04,3.51,18.58,10.54,25.61,7.03,7.03,15.56,10.54,25.61,10.54s18.58-3.51,25.61-10.54c7.03-7.03,10.54-15.56,10.54-25.61v-60.26h24.1v60.26c0,16.7-5.87,30.91-17.61,42.65s-25.96,17.61-42.65,17.61-30.91-5.87-42.65-17.61c-11.74-11.74-17.61-25.95-17.61-42.65Z"/>
  <path class="cls-1" d="M483.75,180.77h-24.1V60.26h24.1v120.51Z"/>
  <path class="cls-1" d="M631,60.26v24.1h-96.41v96.41h-24.1V60.26h120.51ZM631,132.56h-66.28v-24.1h66.28v24.1Z"/>
  <path class="cls-1" d="M683.72,124.28l-48.21-64.02h30.13l30.13,40.11,30.13-40.11h30.13l-48.21,63.83v56.68h-24.1v-56.49Z"/>
</svg>