<?xml version="1.0" encoding="UTF-8"?>
<svg id="Livello_1" data-name="Livello 1" xmlns="http://www.w3.org/2000/svg" xmlns:xlink="http://www.w3.org/1999/xlink" viewBox="0 0 779.24 190.63">
  <defs>
    <style>
      .cls-1 {
        fill: #1d1d1b;
      }

      .cls-2 {
        fill: #fff;
      }

      .cls-3 {
        fill: #1e1e1c;
      }

      .cls-4 {
        fill: #ec691c;
      }

      .cls-5 {
        fill: url(#Sfumatura_senza_nome_5);
      }
    </style>
    <linearGradient id="Sfumatura_senza_nome_5" data-name="Sfumatura senza nome 5" x1="6.19" y1="104.69" x2="200.47" y2="48.45" gradientUnits="userSpaceOnUse">
      <stop offset=".15" stop-color="#ec691c"/>
      <stop offset=".76" stop-color="#efb48c"/>
    </linearGradient>
  </defs>
  <path class="cls-4" d="M131.23,19.61l.27-15.76c.88-2.47,3.27-4.04,5.75-3.84,2.16.17,4.06,1.66,4.82,3.78l-2.38,15.81c-.7,1.71-2.36,2.84-4.2,2.85-1.86.01-3.56-1.12-4.27-2.85Z"/>
  <path class="cls-4" d="M148.04,28.06l13.01-11.72c2.31-.82,4.88-.08,6.38,1.81,1.43,1.82,1.6,4.36.41,6.38l-13.69,9.44c-1.91,1.04-4.27.62-5.6-.93-1.15-1.34-1.37-3.32-.52-4.98Z"/>
  <path class="cls-4" d="M158.07,43.94l15.06,1.55c2.39.67,4,2.91,3.88,5.33-.13,2.55-2.15,4.67-4.75,4.94l-14.93-4.27c-1.59-.88-2.44-2.65-2.13-4.36.27-1.49,1.38-2.73,2.87-3.2Z"/>
  <path class="cls-5" d="M150.89,119.86c-7.52,14.91-17.91,23.94-23.87,28.4-6.25,4.22-23.54,14.67-47.66,14.2-18.8-.37-32.73-7.2-39.37-11.03-9.93,2.79-19.86,5.58-29.79,8.37-.1.02-1.22.22-2.07-.62-.8-.79-.69-1.83-.67-1.95,3.1-9.26,6.21-18.52,9.31-27.77-3.6-4.55-8.35-11.6-11.89-21.11-1.67-4.49-5.67-16.52-4.74-31.62,1.86-30.25,22.06-49.51,24.74-51.98,1.84-1.7,26.85-24.09,61.66-20.12,9.62,1.09,17.34,3.9,22.6,6.28-4.82,5.81-4.89,14.11-.4,19.67,3.97,4.91,10.83,6.82,17.07,4.68-4.3,6.31-3.58,14.71,1.51,19.94,4.61,4.73,11.95,5.98,18.13,3.02-.13.46-1.95,7.56,3.02,12.99,4.17,4.56,9.9,4.42,10.73,4.38.7,7.58,1.29,25.24-8.31,44.27Z"/>
  <path class="cls-2" d="M95.64,18.59c-4.17-1.09-27.81-6.87-51.27,7.39-2.81,1.71-25.39,15.94-30.57,44.21-3.2,17.51,1.83,31.91,4.66,38.4,3.4,7.81,7.7,13.56,10.98,17.32-1.9,6.07-3.8,12.13-5.7,18.2,6.33-1.74,12.66-3.47,18.99-5.21,3.8,2.57,9.65,5.93,17.37,8.23.93.28,5.08,1.32,10.87,2.22,5.53.86,14.32,1.52,24.67-.8,12.32-2.76,20.65-8.34,23.68-10.52,8.43-6.06,13.61-12.92,16.49-17.44,3.18-4.96,7.25-12.66,9.43-22.78,1.32-6.15,1.62-11.63,1.52-16.03-1.56-.86-4.13-2.53-6.42-5.48-2.23-2.88-3.22-5.7-3.67-7.4-1.44,0-10.17-.16-16.84-7.35-6.46-6.97-6.17-15.35-6.09-16.84-1.83-.49-9.32-2.72-14.26-10.31-4.45-6.84-4.04-13.73-3.84-15.79Z"/>
  <path class="cls-3" d="M57.92,58.72c-1.11,13.62-2.22,27.23-3.32,40.85.39,6.96,2.62,10.83,4.69,13.1,4.2,4.61,7.62,6.84,7.62,6.84,1.56,1.02,3.21,1.9,4.3,3.91.94,1.72.97,3.36.98,4.89.03,4.25.03,7.99,0,11.53-.26,7.36-.52,14.72-.79,22.09,2.41.29,5.08.5,7.96.55,2.92.06,5.63-.05,8.07-.25-.69-18.07-.55-31.4.01-35.49.45-3.31,1.8-5.06,2.14-5.47.78-.97,1.48-1.41,3.32-2.74,1.32-.95,3.2-2.33,5.47-4.1,1.35-1.3,3.27-3.48,4.69-6.65,2.13-4.74,1.98-9.06,1.76-11.14l-3.32-37.92c-.49-1.85-2.24-3.09-4.1-2.93-1.77.15-3.24,1.53-3.52,3.32v32.25c-.03.27-.5,4.25-4.1,6.06-2.97,1.49-5.82.37-6.25.2v-38.31c-.23-1.95-1.87-3.45-3.81-3.52-1.89-.06-3.59,1.26-4.01,3.13l-.2,38.9c-.67.19-3.06.79-5.67-.39-3.35-1.52-4.35-4.79-4.5-5.28l.2-32.84c-.21-1.95-1.81-3.44-3.71-3.52-1.79-.07-3.44,1.15-3.91,2.93Z"/>
  <g>
    <path class="cls-1" d="M169.3,73.25h31.69v59.27h26.6v28.01h-58.29v-87.28Z"/>
    <path class="cls-1" d="M251.76,65.73c4.7,0,8.62,1.27,11.74,3.82,3.12,2.55,4.68,6.06,4.68,10.53,0,2.55-.46,4.73-1.39,6.54-.92,1.81-2.14,3.3-3.64,4.46-1.5,1.16-3.24,2.03-5.2,2.6-1.97.58-4.03.87-6.19.87s-4.22-.29-6.19-.87-3.7-1.45-5.2-2.6c-1.5-1.16-2.72-2.64-3.64-4.46-.92-1.81-1.39-3.99-1.39-6.54,0-4.47,1.56-7.99,4.68-10.53s7.03-3.82,11.74-3.82ZM236.84,99.07h29.84v61.47h-29.84v-61.47Z"/>
    <path class="cls-1" d="M281.14,73.25h30.42l28.45,48.39v-48.62l28.57.23v87.28h-30.19l-27.99-45.84h-.92c.08,3.24.1,6.29.06,9.15-.04,2.86-.06,5.71-.06,8.57l-.23,27.9-28.1.23v-87.28Z"/>
    <path class="cls-1" d="M432.87,156.94c0,6.02-1.14,11.15-3.41,15.4-2.27,4.24-5.3,7.72-9.08,10.42-3.78,2.7-8.15,4.69-13.13,5.96-4.97,1.27-10.12,1.91-15.44,1.91-4.78,0-9.27-.4-13.47-1.22-4.2-.81-8.5-2.03-12.9-3.65l-3.01-1.04,6.59-20.72c2.85,2.47,6.23,4.34,10.12,5.61,3.89,1.27,7.69,1.91,11.39,1.91,4.09,0,7.29-1.29,9.6-3.88,2.31-2.59,3.66-5.81,4.05-9.67l.58-6.25h-.81c-.77,1.7-1.81,3.18-3.12,4.46-1.31,1.27-2.78,2.33-4.4,3.18-1.62.85-3.34,1.49-5.15,1.91-1.81.42-3.6.64-5.38.64-4.16,0-7.89-.97-11.16-2.89-3.28-1.93-6.05-4.42-8.33-7.47-2.27-3.05-3.99-6.48-5.15-10.3-1.16-3.82-1.73-7.66-1.73-11.52s.58-7.58,1.73-11.4c1.16-3.82,2.87-7.27,5.15-10.36,2.27-3.09,5.05-5.57,8.33-7.47,3.28-1.89,7.03-2.84,11.28-2.84,3.93,0,7.4.89,10.41,2.66,3.01,1.78,5.51,4.28,7.52,7.52h.81l-.81-8.8h28.91v57.88ZM389.04,129.86c0,2.47.75,4.53,2.26,6.19,1.5,1.66,3.57,2.49,6.19,2.49s4.43-.85,5.67-2.55c1.23-1.7,1.85-3.7,1.85-6.02s-.68-4.38-2.02-6.19c-1.35-1.81-3.26-2.72-5.73-2.72s-4.45.85-5.96,2.55c-1.5,1.7-2.26,3.78-2.26,6.25Z"/>
    <path class="cls-1" d="M480.52,97.68c5.09,0,9.89.69,14.4,2.08,4.51,1.39,8.46,3.47,11.86,6.25,3.39,2.78,6.07,6.21,8.04,10.3,1.97,4.09,2.95,8.84,2.95,14.24,0,5.09-1.04,9.59-3.12,13.49-2.08,3.9-4.86,7.18-8.33,9.84-3.47,2.66-7.44,4.67-11.91,6.02-4.47,1.35-9.1,2.03-13.88,2.03s-9.41-.68-13.88-2.03c-4.47-1.35-8.44-3.36-11.91-6.02-3.47-2.66-6.25-5.94-8.33-9.84-2.08-3.9-3.12-8.39-3.12-13.49,0-5.4.98-10.15,2.95-14.24,1.97-4.09,4.64-7.52,8.04-10.3,3.39-2.78,7.34-4.86,11.85-6.25,4.51-1.39,9.31-2.08,14.4-2.08ZM480.52,121.06c-2.47,0-4.47.89-6.01,2.66-1.54,1.78-2.31,3.9-2.31,6.37s.81,4.5,2.43,6.08c1.62,1.58,3.58,2.37,5.9,2.37s4.28-.79,5.9-2.37c1.62-1.58,2.43-3.61,2.43-6.08s-.77-4.59-2.31-6.37c-1.54-1.77-3.55-2.66-6.01-2.66Z"/>
    <path class="cls-4" d="M528.75,73.25h36.89c4.24,0,8.4.31,12.49.93,4.09.62,7.73,1.81,10.93,3.59,3.2,1.78,5.78,4.25,7.75,7.41,1.97,3.17,2.95,7.25,2.95,12.27,0,3.86-.94,7.45-2.83,10.77-1.89,3.32-4.76,5.6-8.62,6.83v.69c4.78,1.7,8.56,4.26,11.33,7.7,2.78,3.43,4.16,7.78,4.16,13.02,0,4.48-.95,8.26-2.83,11.34-1.89,3.09-4.36,5.58-7.4,7.47-3.05,1.89-6.48,3.24-10.29,4.05-3.82.81-7.62,1.22-11.39,1.22h-43.14v-87.28ZM561.02,106.82c1.16,0,2.31-.06,3.47-.17,1.16-.12,2.21-.39,3.18-.81.96-.42,1.73-1.06,2.31-1.91.58-.85.87-2.04.87-3.59,0-1.62-.33-2.84-.98-3.65-.66-.81-1.5-1.39-2.54-1.74-1.04-.35-2.18-.54-3.41-.58-1.23-.04-2.43-.06-3.59-.06h-2.2v12.5h2.89ZM558.12,139.7h3.59c1.31,0,2.7-.04,4.16-.12,1.46-.08,2.83-.35,4.11-.81s2.33-1.2,3.18-2.2c.85-1,1.27-2.39,1.27-4.17s-.44-3.26-1.33-4.23c-.89-.96-2.01-1.66-3.35-2.08-1.35-.42-2.8-.67-4.34-.75-1.54-.08-2.93-.12-4.16-.12h-3.12v14.47Z"/>
    <path class="cls-4" d="M629.6,65.73c4.7,0,8.62,1.27,11.74,3.82s4.68,6.06,4.68,10.53c0,2.55-.46,4.73-1.39,6.54-.93,1.81-2.14,3.3-3.64,4.46-1.5,1.16-3.24,2.03-5.2,2.6-1.97.58-4.03.87-6.19.87s-4.22-.29-6.19-.87c-1.97-.58-3.7-1.45-5.2-2.6-1.5-1.16-2.72-2.64-3.64-4.46-.93-1.81-1.39-3.99-1.39-6.54,0-4.47,1.56-7.99,4.68-10.53,3.12-2.55,7.03-3.82,11.74-3.82ZM614.68,99.07h29.84v61.47h-29.84v-61.47Z"/>
    <path class="cls-4" d="M692.05,99.88l9.95-.46v23.5l-9.95-.58v38.2h-30.07v-38.2l-7.29.58v-23.5l7.29.46v-20.6h30.07v20.6Z"/>
    <path class="cls-4" d="M735.77,134.83c0,1.24.08,2.49.23,3.76.15,1.27.48,2.41.98,3.42.5,1,1.21,1.81,2.14,2.43.93.62,2.16.93,3.7.93s2.85-.48,3.93-1.45c1.08-.96,1.77-2.18,2.08-3.65h29.03c-1,3.7-2.7,6.91-5.09,9.61-2.39,2.7-5.19,4.96-8.39,6.77-3.2,1.81-6.63,3.15-10.29,3.99-3.66.85-7.27,1.27-10.81,1.27-4.86,0-9.5-.64-13.94-1.91-4.43-1.27-8.37-3.18-11.8-5.73-3.43-2.55-6.17-5.77-8.21-9.67-2.04-3.9-3.06-8.51-3.06-13.83s.93-9.68,2.78-13.78c1.85-4.09,4.36-7.56,7.52-10.42,3.16-2.85,6.9-5.05,11.22-6.6,4.32-1.54,8.91-2.31,13.76-2.31,5.47,0,10.58.85,15.32,2.55,4.74,1.7,8.83,4.15,12.26,7.35,3.43,3.2,6.05,7.1,7.86,11.69,1.81,4.59,2.52,9.78,2.14,15.57h-43.37ZM749.76,122.1c0-2.08-.68-3.94-2.02-5.56-1.35-1.62-3.1-2.43-5.26-2.43s-3.91.79-5.03,2.37c-1.12,1.58-1.68,3.45-1.68,5.61h13.99Z"/>
  </g>
</svg>