<?xml version="1.0" encoding="UTF-8"?>
<svg id="Livello_1" xmlns="http://www.w3.org/2000/svg" xmlns:xlink="http://www.w3.org/1999/xlink" version="1.1" viewBox="0 0 379.05 77">
  <!-- Generator: Adobe Illustrator 30.5.1, SVG Export Plug-In . SVG Version: 2.1.4 Build 3)  -->
  <defs>
    <style>
      .st0 {
        fill: url(#Sfumatura_senza_nome_52);
      }

      .st1 {
        fill: url(#Sfumatura_senza_nome_53);
      }

      .st2 {
        fill: url(#Sfumatura_senza_nome_51);
      }

      .st3 {
        fill: #fff;
      }

      .st4 {
        fill: url(#Sfumatura_senza_nome_5);
      }

      .st5 {
        fill: url(#Sfumatura_senza_nome_3);
      }
    </style>
    <linearGradient id="Sfumatura_senza_nome_3" data-name="Sfumatura senza nome 3" x1="18.27" y1="38.01" x2="72.18" y2="-14.07" gradientTransform="translate(0 54) scale(1 -1)" gradientUnits="userSpaceOnUse">
      <stop offset="0" stop-color="#0159fd"/>
      <stop offset=".83" stop-color="#8909fe"/>
    </linearGradient>
    <radialGradient id="Sfumatura_senza_nome_5" data-name="Sfumatura senza nome 5" cx="65.95" cy="42.69" fx="65.95" fy="42.69" r="5.9" gradientTransform="translate(0 54) scale(1 -1)" gradientUnits="userSpaceOnUse">
      <stop offset=".13" stop-color="#8909fe"/>
      <stop offset=".33" stop-color="#860afd"/>
      <stop offset=".47" stop-color="#7d10fd"/>
      <stop offset=".59" stop-color="#6d19fd"/>
      <stop offset=".69" stop-color="#5725fd"/>
      <stop offset=".8" stop-color="#3b36fd"/>
      <stop offset=".89" stop-color="#194afd"/>
      <stop offset=".95" stop-color="#0159fd"/>
    </radialGradient>
    <radialGradient id="Sfumatura_senza_nome_51" data-name="Sfumatura senza nome 5" cx="4.87" cy="11.26" fx="4.87" fy="11.26" r="5.9" xlink:href="#Sfumatura_senza_nome_5"/>
    <radialGradient id="Sfumatura_senza_nome_52" data-name="Sfumatura senza nome 5" cx="44.82" cy="-17.69" fx="44.82" fy="-17.69" r="5.9" xlink:href="#Sfumatura_senza_nome_5"/>
    <radialGradient id="Sfumatura_senza_nome_53" data-name="Sfumatura senza nome 5" cx="-111.66" cy="128.7" fx="-111.66" fy="128.7" r="5.9" gradientTransform="translate(238.19 269.47) scale(1.77 -1.8)" xlink:href="#Sfumatura_senza_nome_5"/>
  </defs>
  <g>
    <path class="st5" d="M2.41,36.58c.14-2.15,1.52-19.87,16.83-30.19,12.4-8.35,29-8.53,42.44-.48-2.76,2.99-2.9,7.18-.83,9.57,2.04,2.35,5.43,2.05,5.79,2.01.49,1.26,1.12,3.33,1.06,5.92-.07,3.83-1.58,6.65-2.37,7.91-1.03,1.43-3.66,4.6-8.27,6.38-3.3,1.28-6.23,1.31-7.91,1.18-.05.73-.33,2.87-2.01,4.73-2.41,2.67-5.75,2.61-6.27,2.6-.71-.04-3.82-.29-6.15-2.84-1.33-1.47-1.82-3.05-2.01-3.9-2.96.11-5.28.73-6.79,1.25-2.27.79-4.08,1.44-5.28,3.24-.76,1.14-.99,2.33-1.06,3.07.61,1.71,3.03,7.86,9.7,11.71,5.36,3.09,10.52,2.98,12.52,2.84,2.39-.54,9-2.39,14.54-8.51,5.89-6.51,6.87-13.8,7.1-16.2,1.54-1.24,3.67-3.33,5.09-6.5,1.74-3.9,1.54-7.49,1.41-9.57-.1-1.71-.35-3.13-.58-4.15l2.23-2.15c1.84,2.34,4.13,5.81,5.81,10.43,2.6,7.15,2.39,13.48,2.01,17.02-.34,3.56-1.36,8.8-4.49,14.18-2.57,4.43-5.55,7.21-7.21,8.74-3.26,3.02-6.46,4.99-8.87,6.27-1.73.87-3.66,1.71-5.79,2.49-.87.31-1.71.58-2.54.83.19-.67.42-1.74.31-3.07-.11-1.39-.54-2.45-.86-3.07,2.11-1.7,4.42-3.81,6.73-6.38,3.3-3.66,5.71-7.25,7.45-10.28,1.05-1.94,2.22-4.61,2.95-7.91.46-2.07.65-3.96.71-5.56-.04-.58-.08-1.18-.12-1.77l-1.31,1.71c-.38,2.09-1.05,4.85-2.28,7.95-1.5,3.71-3.17,6.26-4.2,7.83-1.77,2.67-4.53,6.27-8.63,9.93l-2.95,2.84c-.39-.33-1.89-1.47-4.09-1.41-2.52.05-4.09,1.63-4.39,1.94-.31.35-2.01,2.37-1.69,5.15.18,1.48.84,2.54,1.24,3.07-3.55-.15-9.42-.87-15.83-4.01-6.57-3.22-10.51-7.45-11.78-8.87-3.35-3.77-5.29-7.51-6.36-9.97-.67-1.52-1.13-2.86-1.44-3.86.48.11,1.29.22,2.24,0,1.97-.44,3.03-1.92,3.36-2.37.63-.9.9-1.81,1.02-2.47,1.05-.01,2.43-.15,4.02-.58,1.65-.46,2.94-1.12,3.85-1.67l.04,1.21c.48-.63,1.18-1.48,2.2-2.31.39-.33,2.01-1.62,4.56-2.47,1.41-.48,2.54-.63,3.47-.75,1.55-.19,2.87-.19,3.85-.14.04-.72.24-2.73,1.77-4.61,1.79-2.22,4.2-2.72,4.84-2.84.78-.19,2.38-.45,4.26.12.58.18,2.67.84,4.13,2.95.95,1.36,1.21,2.72,1.31,3.43,1.29.14,3.1.18,5.19-.23,2.68-.53,4.68-1.59,5.92-2.37.8-.92,2.26-2.88,2.24-5.44-.01-3.13-2.23-5.26-4.49-7.45-1.48-1.43-4.66-4.43-9.93-6.02-2.3-.69-8.72-2.24-15.84.71-.71.3-9.89,4.28-13.12,14.06-.75,2.24-.99,4.24-1.06,5.67.03,1.41.05,2.83.08,4.24-.84.42-1.9.86-3.15,1.2-1.6.44-3.03.57-4.13.58-.15-.54-.71-2.41-2.56-3.7-2.5-1.74-5.28-.98-5.64-.87v-.04Z"/>
    <ellipse class="st4" cx="65.84" cy="11.27" rx="4.76" ry="4.79"/>
    <ellipse class="st2" cx="4.76" cy="42.7" rx="4.76" ry="4.79"/>
    <ellipse class="st0" cx="44.71" cy="71.65" rx="4.76" ry="4.79"/>
    <ellipse class="st1" cx="40.9" cy="37.67" rx="8.42" ry="8.59"/>
  </g>
  <g>
    <path class="st3" d="M164.07,38.02c-.67,7.7-5.29,15.17-11.64,19.59-3.72,2.59-8.05,4.06-12.56,4.55-2.53.27-5.04.18-7.62.04-4.17-.22-8.19-1.55-11.78-3.66-15.44-9.07-17.95-30.53-6.13-43.4,2.33-2.53,5.17-4.49,8.23-6,4.23-2.08,8.56-2.7,13.19-2.68,3.68,0,7.01.37,10.48,1.61,4.04,1.45,7.58,3.7,10.54,6.88,3.98,4.27,6.68,9.78,7.29,15.62.27,2.47.22,4.94,0,7.39v.04ZM153.06,44.37c1.16-2.21,2-4.33,2.27-6.84.67-6.07-.39-11.03-4.15-15.93-2.23-2.9-5.27-4.82-8.72-5.98l-1.16-.53c-3.8-.35-7.64-.43-11.29.08-2.8,1.1-5.33,2.08-7.52,4-6.68,5.78-8.5,15.48-5.07,23.59,2.43,5.7,7.48,9.93,13.56,11.03,3.21.59,6.17.59,9.37,0,5.45-1,10.13-4.55,12.7-9.44v.02Z"/>
    <path class="st3" d="M228.41,54.31c1.96.02,3.25,1.33,4.21,2.72l3.37,4.96,10.6,14.93-9.95.08-8.37-11.85-2.37-3.31-13.83-.1c-5.04-.04-10.27-3.41-13.13-7.7-2.45-3.68-3.37-7.9-3.31-12.3.04-3.86.78-7.48,2.78-10.74,2.98-4.96,7.99-8.39,13.95-8.41l23.96-.12v37.03l-2.57-3.39c-.74-.96-1.51-2.23-2.66-2.68l-2.86-1.12v-22.12l-15.32.08c-2.61,0-4.78,1.82-6.52,3.55-3.57,4.64-3.55,12.36.04,16.67,1.63,1.96,3.92,3.53,6.58,3.57l15.42.22-.02.02Z"/>
    <path class="st3" d="M276.16,54.85l2.68,5.9c.08.18.2.63.08.71l-.59.39h-19.79c-3.51-.59-6.72-1.63-9.42-3.9l-2.55-2.59c-2.59-3.27-3.98-7.15-4.31-11.29v-3.94c.33-5.29,2.47-10.17,6.58-13.62,2.72-2.29,6.25-3.7,9.89-3.9h8.64c8.29,0,16.11,7.72,15.09,17.2-.37,3.37-2.72,5.45-6.02,5.96h-24.92l-.59.18c-.14.04.04.49.12.61,1,4.17,4.11,6.96,8.37,7.66h15.66c.39,0,.94.27,1.12.65l-.04-.02ZM274.28,38.24c.1-4.49-2.92-7.31-6.82-8.01l-8.39-.04c-4.25.51-7.56,3.76-8.27,8.07h23.49v-.02Z"/>
    <path class="st3" d="M345.72,41.1c1.9-1.59,4.43-2.68,6.86-2.72l18.3-.16c.39-4.29-2.02-7.72-6.37-8.03h-19.01l-.59-.41c-.12-.08.06-.47.14-.61l2.16-4.68c.33-.69.71-1.55,1.41-1.96l16.71.06c3.19,0,6,1.27,8.6,2.98,2.78,2.61,5.04,6,5.04,10.03l.08,26.26-26.29-.06c-2.74,0-5.09-1.18-7.27-2.68-5.23-4.78-5.37-13.34.2-18.03h.02ZM370.96,54.19v-8.43h-17.28c-1.92.35-3.41,1.33-3.88,3s0,3.59,1.49,4.6c.61.41,1.53.63,2.29.86h17.38v-.02Z"/>
    <path class="st3" d="M322.78,50.88c-.31,3.17-1.37,6.02-3.74,7.99-2.06,1.7-4.6,2.96-7.37,2.96h-24.02l3.49-7.6,19.97-.14c2.27,0,3.59-2.29,3.57-4.08-.02-2.19-1.55-4.02-3.9-4.04l-12.74-.14c-2.68-.02-5.15-1.2-7.11-3.02-3.37-3.15-4.27-8.11-2.96-12.48,1.41-4.76,5.8-7.45,10.7-7.8h21.87c.18.18.37.78.25,1.04l-2.68,5.37c-.2.41-.61,1.12-1.04,1.25l-18.3.1c-2.08,0-3.23,2.02-3.29,3.8-.08,1.98,1.14,4,3.31,4.04l13.44.22c5.58.1,11.19,5.78,10.54,12.52v.02Z"/>
    <path class="st3" d="M177.98,37.49l-.2,24.39-8.03-.04v-25.28c.63-2.74,1.2-5.13,2.63-7.45,2.33-3.27,6.33-5.86,10.21-6.31l2.04-.25h10.56c.37.53.22,1.23-.04,1.78l-2.21,4.47c-.18.37-.47,1.25-.86,1.39l-7.25.12c-3.64.06-6.86,3.25-6.88,7.19h.02Z"/>
    <polygon class="st3" points="336.26 38.06 336.2 46.23 336.16 61.83 328.07 61.85 328.07 22.51 336.08 22.51 336.22 24.6 336.22 30.17 336.26 38.06"/>
  </g>
</svg>